<svg width="828" height="434" viewBox="0 0 828 434" fill="none" xmlns="http://www.w3.org/2000/svg">
    <g clip-path="url(#clip0_43_35)">
        <path d="M0 263.802C188.114 406.695 571.345 453.161 828 263.802V0H0V263.802Z" fill="#5F1D1E"/>
        <path d="M-2.00049 91C121.2 128.6 267.666 44.6667 325.5 -2H-2.00049C-1.99964 9.5 -2.00049 91 -2.00049 91Z" fill="#8B172A"/>
        <g filter="url(#filter0_d_43_35)">
            <path d="M92.5 264C314.5 305.2 519.333 100.833 594 -2.5H544C513 20 442.1 76.1 406.5 88.5C325.3 102.5 163.333 31 92.5 -2.5H-2V202C5.33333 214.667 34.5 244.8 92.5 264Z" fill="#8A212E" fill-opacity="0.7" shape-rendering="crispEdges"/>
            <path d="M811.5 43.5C770.3 53.1 750.667 18.8333 746 0.5H834V17.5C831.667 26.1667 823.9 43.5 811.5 43.5Z" fill="#8A212E" fill-opacity="0.7" shape-rendering="crispEdges"/>
        </g>
    </g>
    <defs>
        <filter id="filter0_d_43_35" x="-14" y="-14.5" width="868" height="303.91" filterUnits="userSpaceOnUse" color-interpolation-filters="sRGB">
            <feFlood flood-opacity="0" result="BackgroundImageFix"/>
            <feColorMatrix in="SourceAlpha" type="matrix" values="0 0 0 0 0 0 0 0 0 0 0 0 0 0 0 0 0 0 127 0" result="hardAlpha"/>
            <feOffset dx="4" dy="4"/>
            <feGaussianBlur stdDeviation="8"/>
            <feComposite in2="hardAlpha" operator="out"/>
            <feColorMatrix type="matrix" values="0 0 0 0 0 0 0 0 0 0 0 0 0 0 0 0 0 0 0.25 0"/>
            <feBlend mode="normal" in2="BackgroundImageFix" result="effect1_dropShadow_43_35"/>
            <feBlend mode="normal" in="SourceGraphic" in2="effect1_dropShadow_43_35" result="shape"/>
        </filter>
        <clipPath id="clip0_43_35">
            <rect width="828" height="434" fill="white"/>
        </clipPath>
    </defs>
</svg>