<svg width="24" height="24" viewBox="0 0 24 24" fill="none" xmlns="http://www.w3.org/2000/svg">
    <path d="M8.99685 2.81188L3.86138 6.97029C3.00388 7.66336 2.30835 9.13861 2.30835 10.2574V17.5941C2.30835 19.8911 4.1091 21.7723 6.31954 21.7723H17.3527C19.5632 21.7723 21.3639 19.8911 21.3639 17.604V10.396C21.3639 9.19802 20.5922 7.66336 19.6489 6.98019L13.7607 2.69306C12.4268 1.72277 10.2831 1.77227 8.99685 2.81188ZM11.8361 17.8119V14.8416V17.8119Z" fill="white"/>
    <path d="M11.8361 17.8119V14.8416M8.99685 2.81188L3.86138 6.97029C3.00388 7.66336 2.30835 9.13861 2.30835 10.2574V17.5941C2.30835 19.8911 4.1091 21.7723 6.31954 21.7723H17.3527C19.5632 21.7723 21.3639 19.8911 21.3639 17.604V10.396C21.3639 9.19802 20.5922 7.66336 19.6489 6.98019L13.7607 2.69306C12.4268 1.72277 10.2831 1.77227 8.99685 2.81188Z" stroke="#B71438" stroke-width="1.5" stroke-linecap="round" stroke-linejoin="round"/>
</svg>
