<svg width="21" height="20" viewBox="0 0 21 20" fill="none" xmlns="http://www.w3.org/2000/svg">
    <path fill-rule="evenodd" clip-rule="evenodd" d="M13.1466 4.15557C13.0062 4.15557 12.8716 4.09704 12.7723 3.99285C12.673 3.88866 12.6173 3.74736 12.6173 3.60001V1.04557C12.1134 0.81043 11.5776 0.659169 11.0293 0.597236V2.4889C11.0293 2.63625 10.9735 2.77755 10.8743 2.88174C10.775 2.98593 10.6404 3.04446 10.5 3.04446C10.3596 3.04446 10.225 2.98593 10.1257 2.88174C10.0264 2.77755 9.97067 2.63625 9.97067 2.4889V0.566681C9.42419 0.596996 8.88688 0.726702 8.3827 0.950014V3.60001C8.3827 3.74736 8.32694 3.88866 8.22767 3.99285C8.1284 4.09704 7.99377 4.15557 7.85338 4.15557C7.713 4.15557 7.57836 4.09704 7.47909 3.99285C7.37983 3.88866 7.32406 3.74736 7.32406 3.60001V1.64113C6.85268 2.06519 6.48281 2.59954 6.24425 3.20113C6.19312 3.24577 6.14334 3.29209 6.09498 3.34001C5.96635 3.84557 5.98011 4.26835 6.07116 4.53446C6.11593 4.67242 6.10725 4.82333 6.04699 4.95464C5.98673 5.08595 5.87972 5.18715 5.74903 5.23642C5.61835 5.28569 5.47444 5.27908 5.34835 5.21802C5.22226 5.15696 5.12408 5.04634 5.07498 4.91001C5.04257 4.81478 5.01639 4.71733 4.99664 4.61835C4.22065 5.75779 4.93629 6.58112 6.31623 7.0889C6.22207 7.72279 6.25977 8.37057 6.42675 8.98772C6.59374 9.60486 6.88604 10.1768 7.28358 10.6641C7.68111 11.1514 8.17446 11.5427 8.72973 11.8109C9.28499 12.0791 9.889 12.218 10.5003 12.218C11.1115 12.218 11.7155 12.0791 12.2708 11.8109C12.826 11.5427 13.3194 11.1514 13.7169 10.6641C14.1145 10.1768 14.4068 9.60486 14.5737 8.98772C14.7407 8.37057 14.7784 7.72279 14.6843 7.0889C16.0663 6.58001 16.782 5.75446 15.9991 4.61168C15.9779 4.71168 15.9515 4.81001 15.9197 4.90613C15.8975 4.97604 15.8623 5.04061 15.8161 5.0961C15.7699 5.15158 15.7136 5.19686 15.6506 5.2293C15.5875 5.26174 15.519 5.28069 15.4489 5.28505C15.3788 5.28941 15.3086 5.2791 15.2423 5.2547C15.1761 5.23031 15.1151 5.19232 15.063 5.14296C15.0108 5.0936 14.9686 5.03384 14.9387 4.96717C14.9087 4.90051 14.8918 4.82826 14.8887 4.75464C14.8857 4.68102 14.8966 4.60749 14.9209 4.53835C15.0241 4.22946 15.0267 3.8189 14.9119 3.37279C14.871 3.34872 14.8293 3.32611 14.787 3.30501C14.5742 2.75501 14.2026 2.20335 13.6759 1.73946V3.60057C13.6759 3.74791 13.6201 3.88922 13.5209 3.99341C13.4216 4.09759 13.287 4.15613 13.1466 4.15613V4.15557ZM10.8409 7.69724C11.0311 7.60235 11.1776 7.43203 11.2482 7.22376C11.3188 7.0155 11.3076 6.78633 11.2172 6.58668C11.1268 6.38703 10.9645 6.23325 10.7661 6.15918C10.5677 6.0851 10.3493 6.09679 10.1591 6.19168C9.96888 6.28657 9.82237 6.45688 9.75179 6.66515C9.71684 6.76828 9.70159 6.87761 9.7069 6.98693C9.71222 7.09624 9.73799 7.20338 9.78276 7.30224C9.82752 7.40109 9.8904 7.48973 9.9678 7.56308C10.0452 7.63643 10.1356 7.69306 10.2339 7.72974C10.4323 7.80382 10.6506 7.79212 10.8409 7.69724ZM10.5 8.8889C11.2993 8.8889 11.98 8.35779 12.2399 7.6139C12.7149 7.56664 13.1873 7.49414 13.6553 7.39668C13.7059 7.86322 13.662 8.33572 13.5265 8.78322C13.391 9.23072 13.167 9.64312 12.869 9.99342C12.5711 10.3437 12.206 10.624 11.7977 10.8159C11.3894 11.0078 10.9471 11.107 10.4997 11.107C10.0523 11.107 9.61001 11.0078 9.2017 10.8159C8.7934 10.624 8.42833 10.3437 8.13041 9.99342C7.83249 9.64312 7.60844 9.23072 7.47295 8.78322C7.33746 8.33572 7.29358 7.86322 7.34417 7.39668C7.79039 7.49112 8.26678 7.56335 8.76011 7.61335C8.89075 7.98738 9.12767 8.3103 9.43884 8.53842C9.75001 8.76655 10.1204 8.88889 10.5 8.8889Z" fill="#B71438"/>
    <path d="M11.0293 0.555556C11.0293 0.408213 10.9735 0.266905 10.8742 0.162719C10.775 0.0585317 10.6403 0 10.5 0C10.3596 0 10.2249 0.0585317 10.1257 0.162719C10.0264 0.266905 9.97064 0.408213 9.97064 0.555556H11.0293Z" fill="#B71438"/>
    <path fill-rule="evenodd" clip-rule="evenodd" d="M12.8639 12.4444C13.4726 12.5466 14.1068 12.6833 14.7345 12.8527V20H6.26541V12.8522C6.8827 12.6864 7.50689 12.5503 8.13603 12.4444L9.97066 13.8888H11.0293L12.8639 12.4444ZM11.5586 17.2222C11.5586 17.5169 11.4471 17.7995 11.2486 18.0079C11.05 18.2162 10.7807 18.3333 10.5 18.3333C10.2192 18.3333 9.94994 18.2162 9.75141 18.0079C9.55287 17.7995 9.44134 17.5169 9.44134 17.2222C9.44134 16.9275 9.55287 16.6449 9.75141 16.4365C9.94994 16.2281 10.2192 16.1111 10.5 16.1111C10.7807 16.1111 11.05 16.2281 11.2486 16.4365C11.4471 16.6449 11.5586 16.9275 11.5586 17.2222Z" fill="#B71438"/>
    <path d="M4.14812 13.5694C4.49629 13.4233 4.8494 13.2904 5.20677 13.1711V20H4.14812V13.5694ZM15.7932 13.1711C16.1568 13.2933 16.5115 13.4261 16.8518 13.5694V20H15.7932V13.1711ZM3.08948 14.0806C1.83764 14.7761 0.972198 15.6483 0.972198 16.6667V20H3.08948V14.0806ZM20.0278 16.6667C20.0278 15.6483 19.1623 14.7756 17.9105 14.0806V20H20.0278V16.6667Z" fill="#B71438"/>
</svg>
