<svg width="15" height="22" viewBox="0 0 15 22" fill="none" xmlns="http://www.w3.org/2000/svg">
    <path d="M7.27745 10.406C7.18217 10.3961 7.06784 10.3961 6.96304 10.406C5.86944 10.3674 4.83324 9.88799 4.07386 9.0693C3.31448 8.25061 2.89157 7.15691 2.89467 6.01983C2.89467 3.59409 4.78117 1.62379 7.12501 1.62379C7.67992 1.61339 8.23137 1.71667 8.74787 1.92773C9.26437 2.13879 9.7358 2.45351 10.1353 2.8539C10.5347 3.2543 10.8544 3.73253 11.076 4.26131C11.2976 4.79008 11.4168 5.35903 11.4268 5.93567C11.4368 6.51232 11.3374 7.08537 11.1343 7.6221C10.9312 8.15883 10.6284 8.64874 10.2431 9.06384C9.85775 9.47895 9.39754 9.81112 8.8887 10.0414C8.37987 10.2717 7.83236 10.3956 7.27745 10.406ZM2.51356 14.0594C0.207841 15.6634 0.207841 18.2773 2.51356 19.8713C5.1337 21.6931 9.43073 21.6931 12.0509 19.8713C14.3566 18.2674 14.3566 15.6535 12.0509 14.0594C9.44026 12.2476 5.14323 12.2476 2.51356 14.0594Z" stroke="white" stroke-width="1.5" stroke-linecap="round" stroke-linejoin="round"/>
</svg>
